<?xml version="1.0" encoding="UTF-8" standalone="no"?>
<!-- Created with Inkscape (http://www.inkscape.org/) -->

<svg
   xmlns:dc="http://purl.org/dc/elements/1.1/"
   xmlns:cc="http://creativecommons.org/ns#"
   xmlns:rdf="http://www.w3.org/1999/02/22-rdf-syntax-ns#"
   xmlns:svg="http://www.w3.org/2000/svg"
   xmlns="http://www.w3.org/2000/svg"
   xmlns:xlink="http://www.w3.org/1999/xlink"
   xmlns:sodipodi="http://sodipodi.sourceforge.net/DTD/sodipodi-0.dtd"
   xmlns:inkscape="http://www.inkscape.org/namespaces/inkscape"
   width="744.09448819"
   height="1052.3622047"
   id="svg2"
   version="1.1"
   inkscape:version="0.48.5 r10040"
   inkscape:export-filename="/home/n3k00n3/Documents/Projetos/pyladies-assets/geek/png/Pylady_geek_Black_girl.png"
   inkscape:export-xdpi="300"
   inkscape:export-ydpi="300"
   sodipodi:docname="pyladies_logo.svg">
  <defs
     id="defs4">
    <clipPath
       id="clipPath3830"
       clipPathUnits="userSpaceOnUse">
      <path
         id="path3832"
         d="M 0,198 198,198 198,0 0,0 0,198 z" />
    </clipPath>
    <inkscape:perspective
       sodipodi:type="inkscape:persp3d"
       inkscape:vp_x="0 : 0.5 : 1"
       inkscape:vp_y="0 : 1000 : 0"
       inkscape:vp_z="1 : 0.5 : 1"
       inkscape:persp3d-origin="0.5 : 0.33333333 : 1"
       id="perspective3078" />
    <inkscape:perspective
       sodipodi:type="inkscape:persp3d"
       inkscape:vp_x="0 : 0.5 : 1"
       inkscape:vp_y="0 : 1000 : 0"
       inkscape:vp_z="1 : 0.5 : 1"
       inkscape:persp3d-origin="0.5 : 0.33333333 : 1"
       id="perspective3046" />
    <inkscape:perspective
       sodipodi:type="inkscape:persp3d"
       inkscape:vp_x="0 : 0.5 : 1"
       inkscape:vp_y="0 : 1000 : 0"
       inkscape:vp_z="1 : 0.5 : 1"
       inkscape:persp3d-origin="0.5 : 0.33333333 : 1"
       id="perspective3018" />
    <inkscape:perspective
       sodipodi:type="inkscape:persp3d"
       inkscape:vp_x="0 : 0.5 : 1"
       inkscape:vp_y="0 : 1000 : 0"
       inkscape:vp_z="1 : 0.5 : 1"
       inkscape:persp3d-origin="0.5 : 0.33333333 : 1"
       id="perspective2984" />
    <inkscape:perspective
       sodipodi:type="inkscape:persp3d"
       inkscape:vp_x="0 : 0.5 : 1"
       inkscape:vp_y="0 : 1000 : 0"
       inkscape:vp_z="1 : 0.5 : 1"
       inkscape:persp3d-origin="0.5 : 0.33333333 : 1"
       id="perspective2953" />
    <inkscape:perspective
       sodipodi:type="inkscape:persp3d"
       inkscape:vp_x="0 : 0.5 : 1"
       inkscape:vp_y="0 : 1000 : 0"
       inkscape:vp_z="1 : 0.5 : 1"
       inkscape:persp3d-origin="0.5 : 0.33333333 : 1"
       id="perspective2887" />
    <inkscape:perspective
       sodipodi:type="inkscape:persp3d"
       inkscape:vp_x="0 : 0.5 : 1"
       inkscape:vp_y="0 : 1000 : 0"
       inkscape:vp_z="1 : 0.5 : 1"
       inkscape:persp3d-origin="0.5 : 0.33333333 : 1"
       id="perspective2862" />
    <inkscape:perspective
       sodipodi:type="inkscape:persp3d"
       inkscape:vp_x="0 : 0.5 : 1"
       inkscape:vp_y="0 : 1000 : 0"
       inkscape:vp_z="1 : 0.5 : 1"
       inkscape:persp3d-origin="0.5 : 0.33333333 : 1"
       id="perspective2919" />
    <inkscape:perspective
       sodipodi:type="inkscape:persp3d"
       inkscape:vp_x="0 : 0.5 : 1"
       inkscape:vp_y="0 : 1000 : 0"
       inkscape:vp_z="1 : 0.5 : 1"
       inkscape:persp3d-origin="0.5 : 0.33333333 : 1"
       id="perspective2891" />
    <inkscape:perspective
       sodipodi:type="inkscape:persp3d"
       inkscape:vp_x="0 : 0.5 : 1"
       inkscape:vp_y="0 : 1000 : 0"
       inkscape:vp_z="1 : 0.5 : 1"
       inkscape:persp3d-origin="0.5 : 0.33333333 : 1"
       id="perspective2838" />
    <inkscape:perspective
       sodipodi:type="inkscape:persp3d"
       inkscape:vp_x="0 : 0.5 : 1"
       inkscape:vp_y="0 : 1000 : 0"
       inkscape:vp_z="1 : 0.5 : 1"
       inkscape:persp3d-origin="0.5 : 0.33333333 : 1"
       id="perspective2980" />
    <inkscape:perspective
       sodipodi:type="inkscape:persp3d"
       inkscape:vp_x="0 : 0.5 : 1"
       inkscape:vp_y="0 : 1000 : 0"
       inkscape:vp_z="1 : 0.5 : 1"
       inkscape:persp3d-origin="0.5 : 0.33333333 : 1"
       id="perspective2889" />
    <inkscape:perspective
       sodipodi:type="inkscape:persp3d"
       inkscape:vp_x="0 : 0.5 : 1"
       inkscape:vp_y="0 : 1000 : 0"
       inkscape:vp_z="1 : 0.5 : 1"
       inkscape:persp3d-origin="0.5 : 0.33333333 : 1"
       id="perspective2867" />
    <inkscape:perspective
       id="perspective10"
       inkscape:persp3d-origin="372.04724 : 350.78739 : 1"
       inkscape:vp_z="744.09448 : 526.18109 : 1"
       inkscape:vp_y="0 : 1000 : 0"
       inkscape:vp_x="0 : 526.18109 : 1"
       sodipodi:type="inkscape:persp3d" />
    <linearGradient
       y2="863.76147"
       x2="179.62918"
       y1="695.31805"
       x1="183.13112"
       gradientTransform="matrix(0.49281496,0,0,0.49281495,271.20481,175.81614)"
       gradientUnits="userSpaceOnUse"
       id="linearGradient3099"
       xlink:href="#linearGradient4315"
       inkscape:collect="always" />
    <linearGradient
       y2="863.76147"
       x2="179.62918"
       y1="695.31805"
       x1="183.13112"
       gradientTransform="matrix(0.49281496,0,0,0.49281495,271.20481,175.81614)"
       gradientUnits="userSpaceOnUse"
       id="linearGradient4351"
       xlink:href="#linearGradient4315"
       inkscape:collect="always" />
    <linearGradient
       id="linearGradient4315"
       inkscape:collect="always">
      <stop
         id="stop4317"
         offset="0"
         style="stop-color:#00ff00;stop-opacity:1" />
      <stop
         id="stop4319"
         offset="1"
         style="stop-color:#cccccc;stop-opacity:0;" />
    </linearGradient>
    <linearGradient
       inkscape:collect="always"
       xlink:href="#linearGradient4315"
       id="linearGradient14887"
       gradientUnits="userSpaceOnUse"
       gradientTransform="matrix(0.49281496,0,0,0.49281495,271.20481,175.81614)"
       x1="183.13112"
       y1="695.31805"
       x2="179.62918"
       y2="863.76147" />
    <linearGradient
       inkscape:collect="always"
       xlink:href="#linearGradient4315"
       id="linearGradient14889"
       gradientUnits="userSpaceOnUse"
       gradientTransform="matrix(0.49281496,0,0,0.49281495,271.20481,175.81614)"
       x1="183.13112"
       y1="695.31805"
       x2="179.62918"
       y2="863.76147" />
    <linearGradient
       inkscape:collect="always"
       xlink:href="#linearGradient4315"
       id="linearGradient14891"
       gradientUnits="userSpaceOnUse"
       gradientTransform="matrix(0.49281496,0,0,0.49281495,271.20481,175.81614)"
       x1="183.13112"
       y1="695.31805"
       x2="179.62918"
       y2="863.76147" />
    <linearGradient
       inkscape:collect="always"
       xlink:href="#linearGradient4315"
       id="linearGradient14893"
       gradientUnits="userSpaceOnUse"
       gradientTransform="matrix(0.49281496,0,0,0.49281495,271.20481,175.81614)"
       x1="183.13112"
       y1="695.31805"
       x2="179.62918"
       y2="863.76147" />
    <linearGradient
       inkscape:collect="always"
       xlink:href="#linearGradient4315"
       id="linearGradient14895"
       gradientUnits="userSpaceOnUse"
       gradientTransform="matrix(0.49281496,0,0,0.49281495,271.20481,175.81614)"
       x1="183.13112"
       y1="695.31805"
       x2="179.62918"
       y2="863.76147" />
    <linearGradient
       inkscape:collect="always"
       xlink:href="#linearGradient4315"
       id="linearGradient14897"
       gradientUnits="userSpaceOnUse"
       gradientTransform="matrix(0.49281496,0,0,0.49281495,271.20481,175.81614)"
       x1="183.13112"
       y1="695.31805"
       x2="179.62918"
       y2="863.76147" />
    <linearGradient
       inkscape:collect="always"
       xlink:href="#linearGradient4315"
       id="linearGradient14899"
       gradientUnits="userSpaceOnUse"
       gradientTransform="matrix(0.49281496,0,0,0.49281495,271.20481,175.81614)"
       x1="183.13112"
       y1="695.31805"
       x2="179.62918"
       y2="863.76147" />
    <linearGradient
       inkscape:collect="always"
       xlink:href="#linearGradient4315"
       id="linearGradient14901"
       gradientUnits="userSpaceOnUse"
       gradientTransform="matrix(0.49281496,0,0,0.49281495,271.20481,175.81614)"
       x1="183.13112"
       y1="695.31805"
       x2="179.62918"
       y2="863.76147" />
    <linearGradient
       inkscape:collect="always"
       xlink:href="#linearGradient4315"
       id="linearGradient14903"
       gradientUnits="userSpaceOnUse"
       gradientTransform="matrix(0.49281496,0,0,0.49281495,271.20481,175.81614)"
       x1="183.13112"
       y1="695.31805"
       x2="179.62918"
       y2="863.76147" />
    <linearGradient
       inkscape:collect="always"
       xlink:href="#linearGradient4315"
       id="linearGradient14905"
       gradientUnits="userSpaceOnUse"
       gradientTransform="matrix(0.49281496,0,0,0.49281495,271.20481,175.81614)"
       x1="183.13112"
       y1="695.31805"
       x2="179.62918"
       y2="863.76147" />
    <linearGradient
       inkscape:collect="always"
       xlink:href="#linearGradient4315"
       id="linearGradient14907"
       gradientUnits="userSpaceOnUse"
       gradientTransform="matrix(0.49281496,0,0,0.49281495,271.20481,175.81614)"
       x1="183.13112"
       y1="695.31805"
       x2="179.62918"
       y2="863.76147" />
  </defs>
  <sodipodi:namedview
     id="base"
     pagecolor="#ffffff"
     bordercolor="#666666"
     borderopacity="1.0"
     inkscape:pageopacity="0.0"
     inkscape:pageshadow="2"
     inkscape:zoom="2"
     inkscape:cx="358.44135"
     inkscape:cy="774.5285"
     inkscape:document-units="px"
     inkscape:current-layer="layer1"
     showgrid="false"
     showguides="true"
     inkscape:guide-bbox="true"
     inkscape:window-width="1364"
     inkscape:window-height="747"
     inkscape:window-x="0"
     inkscape:window-y="19"
     inkscape:window-maximized="0" />
  <metadata
     id="metadata7">
    <rdf:RDF>
      <cc:Work
         rdf:about="">
        <dc:format>image/svg+xml</dc:format>
        <dc:type
           rdf:resource="http://purl.org/dc/dcmitype/StillImage" />
        <dc:title></dc:title>
      </cc:Work>
    </rdf:RDF>
  </metadata>
  <g
     inkscape:label="Layer 1"
     inkscape:groupmode="layer"
     id="layer1">
    <g
       id="layer3"
       inkscape:label="comment"
       transform="translate(-1428.0042,329.11627)"
       style="display:inline" />
    <g
       id="layer2"
       inkscape:label="la1"
       style="display:none"
       transform="translate(-1163.8977,219.20876)">
      <path
         inkscape:connector-curvature="0"
         style="fill:#000000;fill-opacity:1;stroke:none;display:inline"
         d="m 93.81348,88.834957 -4.08556,75.110403 51.42595,3.08556 1.58555,-17.18446 -37.02667,-3.08555 3.55703,-56.868913 -15.4563,-1.05704 z"
         id="path2847-1"
         sodipodi:nodetypes="ccccccc" />
      <path
         inkscape:connector-curvature="0"
         style="fill:#fa023c;fill-opacity:1;stroke:none;display:inline"
         d="m 90.81348,84.83496 -4.08556,75.1104 51.42595,3.08556 1.58555,-17.18446 -37.02667,-3.08555 3.55703,-56.868911 -15.4563,-1.057039 z"
         id="path2847"
         sodipodi:nodetypes="ccccccc" />
      <path
         inkscape:connector-curvature="0"
         style="fill:#000000;fill-opacity:1;stroke:none;display:inline"
         d="m 168.125,91.379587 -19.09375,74.250003 14.125,1.40625 7.09375,-26.875 12.71875,0.71875 4.25,26.15625 17.65625,0.6875 -19.09375,-76.343753 -17.65625,0 z m 8.78125,21.218753 3.9375,14.34375 -8,0 4.0625,-14.34375 z"
         id="path2849-6" />
      <path
         inkscape:connector-curvature="0"
         style="fill:#fa023c;fill-opacity:1;stroke:none;display:inline"
         d="m 165.125,87.37959 -19.09375,74.25 14.125,1.40625 7.09375,-26.875 12.71875,0.71875 4.25,26.15625 17.65625,0.6875 -19.09375,-76.34375 -17.65625,0 z m 8.78125,21.21875 3.9375,14.34375 -8,0 4.0625,-14.34375 z"
         id="path2849" />
    </g>
    <g
       id="layer6"
       inkscape:label="la3"
       style="display:none"
       transform="translate(-1163.8977,219.20876)">
      <path
         inkscape:connector-curvature="0"
         id="path2930"
         style="font-size:40px;font-style:normal;font-variant:normal;font-weight:bold;font-stretch:normal;fill:#000000;fill-opacity:1;stroke:none;font-family:Helvetica LT;-inkscape-font-specification:Helvetica LT Bold"
         d="m 124.37407,115.36352 26.9751,0 0,9.82286 -38.30917,0 0,-54.252434 11.33407,0 0,44.429574" />
      <path
         inkscape:connector-curvature="0"
         id="path2932"
         style="font-size:40px;font-style:normal;font-variant:normal;font-weight:bold;font-stretch:normal;fill:#000000;fill-opacity:1;stroke:none;font-family:Helvetica LT;-inkscape-font-specification:Helvetica LT Bold"
         d="m 156.73988,116.63393 13.82755,0 -6.72487,-21.459184 -0.15112,0 -6.95156,21.459184 m -6.80046,20.55245 -11.93855,0 19.34349,-54.252434 13.07197,0 19.11678,54.252434 -12.31634,0 -3.47578,-11.18295 -20.02353,0 -3.77804,11.18295" />
    </g>
    <g
       id="layer7"
       inkscape:label="la4"
       style="display:none"
       transform="translate(-1163.8977,219.20876)">
      <flowRoot
         xml:space="preserve"
         id="flowRoot2937-3"
         style="font-size:40px;font-style:italic;font-weight:normal;fill:#000000;fill-opacity:1;stroke:none;display:inline;font-family:Bitstream Vera Sans;-inkscape-font-specification:Helvetica LT Bold Italic"
         transform="matrix(1.5631857,0,0,1.5631857,7.0243192,33.635255)"><flowRegion
           id="flowRegion2939-5"><rect
             id="rect2941-7"
             width="137"
             height="76"
             x="60"
             y="24.00001"
             style="font-style:italic;fill:#000000;fill-opacity:1;-inkscape-font-specification:Helvetica LT Bold Italic" /></flowRegion><flowPara
           id="flowPara2943-7"
           style="font-style:italic;font-variant:normal;font-weight:bold;font-stretch:normal;fill:#000000;fill-opacity:1;font-family:Helvetica LT;-inkscape-font-specification:Helvetica LT Bold Italic">LA</flowPara></flowRoot>      <flowRoot
         xml:space="preserve"
         id="flowRoot2937"
         style="font-size:40px;font-style:italic;font-weight:normal;fill:#fa023c;fill-opacity:1;stroke:none;display:inline;font-family:Bitstream Vera Sans;-inkscape-font-specification:Helvetica LT Bold Italic"
         transform="matrix(1.5631857,0,0,1.5631857,3.7314332,32.342362)"><flowRegion
           id="flowRegion2939"><rect
             id="rect2941"
             width="137"
             height="76"
             x="60"
             y="24.00001"
             style="font-style:italic;fill:#fa023c;fill-opacity:1;-inkscape-font-specification:Helvetica LT Bold Italic" /></flowRegion><flowPara
           id="flowPara2943"
           style="font-style:italic;font-variant:normal;font-weight:bold;font-stretch:normal;fill:#fa023c;fill-opacity:1;font-family:Helvetica LT;-inkscape-font-specification:Helvetica LT Bold Italic">LA</flowPara></flowRoot>    </g>
    <g
       id="layer11"
       inkscape:label="palm0"
       style="display:none"
       transform="translate(-1110.1576,231.71426)">
      <path
         inkscape:connector-curvature="0"
         style="fill:#000000;stroke:none;display:inline"
         d="m 577.94372,286.6388 c 0,0 15.9789,-84.06866 9.71671,-111.90064 -7.18481,-31.93248 -34.06523,-70.9128 -34.06523,-70.9128 l 5.77682,2.8129 -0.37761,-4.43436 c 1.78535,1.48202 5.34103,5.8892 8.14145,6.86369 -0.13512,-1.30234 -0.51824,-4.12636 1.14283,-4.14243 l 6.55479,7.19364 c 1.03245,-0.48795 -0.45709,-6.03409 -0.45709,-6.03409 l 8.682,-0.20096 c -2.13408,-2.3854 -6.84649,-3.08483 -9.1377,-3.45753 -1.03433,-0.68247 3.26001,-1.67507 2.46778,-1.86787 -1.59915,-0.38915 -5.18839,-1.687105 -9.22788,0.12757 -0.50061,-1.767165 0.20954,-2.489265 1.57333,-3.907375 -4.32963,-0.76851 -9.1633,0.53145 -11.55382,1.29031 l 1.9796,-2.92633 -9.00278,1.23876 0.74105,-1.805 11.29179,-3.81944 c 2.64532,3.19151 8.76478,6.8413 13.93257,6.676 -1.87237,-2.87038 -2.31417,-3.91542 -1.60602,-6.66282 2.66826,3.1888 5.83982,5.37777 13.25415,6.45719 -0.88123,-2.46961 -2.44566,-3.95285 1.87871,-6.94302 1.28936,4.23374 4.094,8.64418 10.60707,9.22133 0.3356,-3.2972 -0.30023,-5.19735 0.19643,-8.49455 l 12.61677,-4.548903 c -5.00343,-3.060842 -8.70435,-3.067846 -10.30069,-2.735984 -3.22783,0.671036 -6.16712,0.370544 -10.51752,2.268049 -0.61721,-2.113528 1.93295,-4.815091 4.89579,-6.926326 -9.80142,0.992729 -19.18086,6.7171 -19.18086,6.7171 -1.52499,-1.143751 1.60225,-2.917421 4.68185,-4.549381 0,0 -14.36797,1.183719 -21.37575,4.131824 -0.80025,-2.112415 2.56905,-3.580029 5.07495,-6.194501 -10.45688,-0.421826 -15.04495,3.916227 -21.73302,6.091751 0,0 10.97679,-14.96835 18.1616,-14.170038 7.18481,0.798313 15.16793,8.781432 15.16793,8.781432 l -3.99155,-14.369616 15.96623,11.97468 -3.99156,-14.369616 17.56287,12.772991 -5.58819,-14.369614 16.76455,-7.184808 c -7.64255,-2.607008 -15.79707,-3.16617 -24.94137,0.23382 -0.78267,-2.194542 5.66491,-6.196643 10.57176,-9.813564 -10.44222,-1.05929 -17.87412,2.898633 -23.81239,9.345924 -1.68474,-1.933884 1.14322,-6.876239 3.85459,-11.74086 -9.50193,3.945812 -17.65969,8.899746 -21.18363,17.329043 -2.65561,-4.445828 -0.48871,-8.891655 2.82246,-13.337483 -0.27742,-0.739771 -32.46508,13.215483 -29.53755,27.940919 0.94687,4.762732 0.1937,10.241086 0.1937,10.241086 4.83722,-2.976752 -14.22423,-7.34694 -37.52066,-1.596623 -10.53955,2.601504 -15.70314,14.392748 -15.36163,14.506588 l 11.97468,0.79831 c -9.68927,5.603875 -15.52553,13.776425 -20.75611,22.352745 6.01868,-4.5419 11.31584,-5.47614 15.82927,-2.49179 l -15.82927,20.05465 15.16792,-7.98312 7.18481,11.97468 c 4.26552,-7.84222 4.46354,-17.7182 2.72561,-28.56214 2.79049,3.71929 5.53707,7.52641 6.85414,14.19253 4.44917,-7.35516 1.35746,-21.30322 3.19324,-31.658555 l 3.99157,14.095685 c 3.82185,-8.53015 10.11312,-19.300295 18.36117,-17.562875 4.20673,0.88614 3.19325,5.58819 3.19325,5.58819 l -11.97468,11.974685 7.18481,-0.79831 -13.57131,10.37806 12.77299,-2.39494 -15.96623,16.76455 11.17636,-1.59662 4.78987,11.97468 3.19325,-16.76455 6.38649,8.78143 -0.7983,-21.55443 4.78987,3.99156 0.79832,-8.78143 c 12.05577,12.05578 33.60091,44.21007 35.92403,70.25145 0.79085,8.86522 1.2485,37.25725 -2.30944,58.75752 -4.56606,27.59215 -13.55439,48.21629 -13.6568,48.21629 l 17.56286,-0.79832 z"
         id="path3008"
         sodipodi:nodetypes="cscccccccccsccccccccccccccscccccccscccccccccccccscscccccccccccscccccccccccccsscc" />
    </g>
    <g
       id="layer9"
       inkscape:label="snake"
       style="display:none"
       transform="translate(-1163.8977,219.20876)">
      <path
         inkscape:connector-curvature="0"
         style="fill:#fa023c;fill-opacity:1;stroke:none;display:inline"
         d="m 176.77669,118.57151 c 0,0 9.83077,3.19003 12.55115,2.82843 6.03186,-0.80178 7.99417,-5.35509 7.99417,-5.35509 l -0.0392,3.41054 3.18199,0 c 0,0 -4.0384,4.22523 -10.96016,4.94975 0,0 0,0 0,0 -3.88826,0.1698 -15.02603,-2.12132 -15.02603,-2.12132 l -0.35355,-3.88909 2.65165,0.17678 z"
         id="path3036"
         sodipodi:nodetypes="cscccssccc" />
      <path
         inkscape:connector-curvature="0"
         style="fill:#000000;stroke:none;display:inline"
         d="m 112,234 c 0,0 -33.000002,-18.99999 -18.999999,-47.99999 13.999999,-29 55.999999,-19 55.999999,-30 0,-11 -26,-20 -16,-40 10,-20.000006 40.74903,-29.138901 55.99999,-10.5 3.9819,4.86646 3.15522,5.60646 2.90562,9.86318 -0.1079,1.84014 -7.26766,3.57992 -16.74846,4.43791 -0.95292,3.02726 8.27472,4.3004 10.05438,6.10807 4.40257,4.47186 -14.6225,4.50083 -19.21154,4.09084 -8.03026,-0.71744 1.68017,16.13929 9,23 7.35141,6.89032 15.46465,19.65801 -6,30 -9.27516,4.46891 -40.99999,3 -47.99999,12 -3.73445,4.80144 -1,16 6,22.99999 7,7 22,12 28,5 6,-6.99999 3,-17.99999 3,-17.99999 0,0 15.99999,8 11.99999,18.99999 -4,11 -17.99999,19 -28.99999,18 -11,-1 -30,-7 -29,-8 z"
         id="path3032"
         sodipodi:nodetypes="cssssscssssssscssc" />
      <path
         inkscape:connector-curvature="0"
         style="fill:#fa023c;fill-opacity:1;stroke:none;display:inline"
         d="m 161.5,108.00001 23.36636,-7.65391 c 0.18197,-0.0743 -0.089,0.20227 -1.70316,-0.17329 -0.68738,-0.420723 -2.07093,-1.284654 -3.63059,-2.098405 -0.29778,-0.155364 8.18513,0.215091 8.46738,0.925546 -0.12648,-0.379434 6.56429,5.460619 0.35355,10.232239 C 183.03404,113.3191 179,108.99996 179,108.99996 c 0,0 0.43012,4.66515 -5.58579,6.23223 -5.19928,1.35436 -9.52711,-3.08089 -11.93564,-4.79241 -0.66715,-0.47409 -15.66033,-2.1322 -21.20211,-3.28355 -1.06407,-1.07979 -1.17651,-2.1704 0.47928,-2.13844 1.93085,0.0373 21.13923,3.31033 20.74426,2.98217 l 0,5e-5 z"
         id="path3034"
         sodipodi:nodetypes="cccscscsscscc" />
    </g>
    <g
       id="g5454"
       style="fill:#ffffff;stroke:#ffffff;stroke-width:10.65847111;stroke-miterlimit:4;stroke-dasharray:none"
       transform="matrix(0.61364922,0,0,0.61364922,-236.61325,126.8637)">
      <g
         id="g5318"
         transform="matrix(1.8785415,0,0,-1.8785415,1049.8225,92.458134)"
         style="fill:#ffffff;stroke:#ffffff;stroke-width:5.67380095;stroke-miterlimit:4;stroke-dasharray:none">
        <path
           inkscape:connector-curvature="0"
           d="m 0,0 c 0,-46.617 -37.791,-84.407 -84.406,-84.407 -46.618,0 -84.409,37.79 -84.409,84.407 0,46.617 37.791,84.408 84.409,84.408 C -37.791,84.408 0,46.617 0,0"
           style="fill:#ffffff;fill-opacity:1;fill-rule:nonzero;stroke:#ffffff;stroke-width:5.67380095;stroke-miterlimit:4;stroke-dasharray:none"
           id="path5320" />
      </g>
      <g
         id="g5322"
         transform="matrix(1.8785415,0,0,-1.8785415,897.13976,58.147325)"
         style="fill:#ffffff;stroke:#ffffff;stroke-width:5.67380095;stroke-miterlimit:4;stroke-dasharray:none">
        <path
           inkscape:connector-curvature="0"
           d="M 0,0 C -1.071,0.043 -2.095,0.037 -3.13,0.044 -4.166,0.037 -5.189,0.043 -6.259,0 c -53.33,-2.102 -61.206,-41.123 -61.206,-41.123 0,0 15.464,-45.626 28.368,-56.091 7.425,-6.025 26.31,-15.886 35.967,-16.642 9.657,0.756 28.54,10.617 35.967,16.642 12.903,10.465 28.368,56.091 28.368,56.091 0,0 -7.876,39.021 -61.205,41.123"
           style="fill:#ffffff;fill-opacity:1;fill-rule:nonzero;stroke:#ffffff;stroke-width:5.67380095;stroke-miterlimit:4;stroke-dasharray:none"
           id="path5324" />
      </g>
      <g
         id="g5330"
         transform="matrix(1.8785415,0,0,-1.8785415,725.0477,155.86341)"
         style="fill:#ffffff;stroke:#ffffff;stroke-width:5.67380095;stroke-miterlimit:4;stroke-dasharray:none">
        <path
           inkscape:connector-curvature="0"
           d="m 0,0 c 31.969,-1.841 42.277,25.518 42.277,25.518 0,0 21.362,-16.373 54.057,-25.607 42.579,-12.024 81.348,17.761 81.348,17.761 0,0 -32.071,12.554 -41.545,63.183 C 104.793,90.247 60.432,73.862 34.759,61.558 9.086,49.253 18.653,8.55 0,0"
           style="fill:#ffffff;fill-opacity:1;fill-rule:nonzero;stroke:#ffffff;stroke-width:5.67380095;stroke-miterlimit:4;stroke-dasharray:none"
           id="path5332" />
      </g>
    </g>
    <g
       id="g3834"
       transform="matrix(1.1527655,0,0,-1.1527655,407.25888,183.24989)"
       style="fill:#000000">
      <path
         inkscape:connector-curvature="0"
         d="m 0,0 c 0,-46.617 -37.791,-84.407 -84.406,-84.407 -46.618,0 -84.409,37.79 -84.409,84.407 0,46.617 37.791,84.408 84.409,84.408 C -37.791,84.408 0,46.617 0,0"
         style="fill:#000000;fill-opacity:1;fill-rule:nonzero;stroke:none"
         id="path3836" />
    </g>
    <g
       id="g3838"
       transform="matrix(1.1527655,0,0,-1.1527655,313.56522,162.19509)"
       style="fill:#aa4400">
      <path
         inkscape:connector-curvature="0"
         d="M 0,0 C -1.071,0.043 -2.095,0.037 -3.13,0.044 -4.166,0.037 -5.189,0.043 -6.259,0 c -53.33,-2.102 -61.206,-41.123 -61.206,-41.123 0,0 15.464,-45.626 28.368,-56.091 7.425,-6.025 26.31,-15.886 35.967,-16.642 9.657,0.756 28.54,10.617 35.967,16.642 12.903,10.465 28.368,56.091 28.368,56.091 0,0 -7.876,39.021 -61.205,41.123"
         style="fill:#aa4400;fill-opacity:1;fill-rule:nonzero;stroke:none"
         id="path3840" />
    </g>
    <g
       id="g3842"
       transform="matrix(1.1527655,0,0,-1.1527655,292.44783,243.00234)">
      <path
         inkscape:connector-curvature="0"
         d="m 0,0 c 0,0 -6.064,-8.475 -13.543,-8.475 -7.481,0 -13.544,8.475 -13.544,8.475 0,0 6.063,7.775 13.544,7.775 C -6.064,7.775 0,0 0,0"
         style="fill:#ffffff;fill-opacity:1;fill-rule:nonzero;stroke:none"
         id="path3844" />
    </g>
    <g
       id="g3846"
       transform="matrix(1.1527655,0,0,-1.1527655,207.96106,222.15848)"
       style="fill:#000000">
      <path
         inkscape:connector-curvature="0"
         d="m 0,0 c 31.969,-1.841 42.277,25.518 42.277,25.518 0,0 21.362,-16.373 54.057,-25.607 42.579,-12.024 81.348,17.761 81.348,17.761 0,0 -32.071,12.554 -41.545,63.183 C 104.793,90.247 60.432,73.862 34.759,61.558 9.086,49.253 18.653,8.55 0,0"
         style="fill:#000000;fill-opacity:1;fill-rule:nonzero;stroke:none"
         id="path3848" />
    </g>
    <g
       id="g3850"
       transform="matrix(1.1527655,0,0,-1.1527655,327.46481,243.00234)">
      <path
         inkscape:connector-curvature="0"
         d="m 0,0 c 0,0 6.064,-8.475 13.543,-8.475 7.48,0 13.544,8.475 13.544,8.475 0,0 -6.064,7.775 -13.544,7.775 C 6.064,7.775 0,0 0,0"
         style="fill:#ffffff;fill-opacity:1;fill-rule:nonzero;stroke:none"
         id="path3852" />
    </g>
    <g
       id="g3854"
       transform="matrix(1.1527655,0,0,-1.1527655,333.50666,239.21527)"
       style="fill:#000000">
      <path
         inkscape:connector-curvature="0"
         d="M 0,0 C 0,0.642 0.081,1.266 0.22,1.868 2.16,4.049 5,5.432 8.179,5.432 c 3.359,0 6.346,-1.545 8.284,-3.945 C 16.551,1.004 16.602,0.508 16.602,0 16.602,-4.585 12.887,-8.302 8.301,-8.302 3.718,-8.302 0,-4.585 0,0"
         style="fill:#000000;fill-opacity:1;fill-rule:nonzero;stroke:none"
         id="path3856" />
    </g>
    <g
       id="g3858"
       transform="matrix(1.1527655,0,0,-1.1527655,359.02855,243.74367)"
       style="fill:#000000">
      <path
         inkscape:connector-curvature="0"
         d="m 0,0 c 0,0 -4.114,6.398 -12.531,8.002 -8.419,1.603 -14.85,-7.358 -14.85,-7.358 0,0 5.241,9.156 11.195,10.698 1.908,0.494 4.277,0.259 4.277,0.259 0,0 3.468,1.428 3.994,1.106 0.529,-0.321 -0.659,-1.925 -0.659,-1.925 0,0 3.915,1.577 4.168,1.026 0.251,-0.552 -1.13,-2.48 -1.13,-2.48 0,0 4.872,2.965 5.243,2.183 0.369,-0.783 -2.153,-3.415 -2.153,-3.415 0,0 7.966,3.757 8.325,2.302 C 6.24,8.943 0.334,4.606 0.334,4.606 c 0,0 10.171,4.013 10.423,2.501 0.25,-1.515 -10.864,-7.784 -10.864,-7.784 L 0,0 z"
         style="fill:#000000;fill-opacity:1;fill-rule:nonzero;stroke:none"
         id="path3860" />
    </g>
    <g
       id="g3862"
       transform="matrix(1.1527655,0,0,-1.1527655,340.17001,239.26654)">
      <path
         inkscape:connector-curvature="0"
         d="m 0,0 c 0,-1.191 -0.966,-2.158 -2.155,-2.158 -1.191,0 -2.156,0.967 -2.156,2.158 0,1.19 0.965,2.153 2.156,2.153 C -0.966,2.153 0,1.19 0,0"
         style="fill:#ffffff;fill-opacity:1;fill-rule:nonzero;stroke:none"
         id="path3864" />
    </g>
    <g
       id="g3866"
       transform="matrix(1.1527655,0,0,-1.1527655,260.88362,243.74367)"
       style="fill:#000000">
      <path
         inkscape:connector-curvature="0"
         d="m 0,0 c 0,0 4.115,6.398 12.533,8.002 8.418,1.603 14.849,-7.358 14.849,-7.358 0,0 -5.243,9.156 -11.196,10.698 -1.909,0.494 -4.277,0.259 -4.277,0.259 0,0 -3.467,1.428 -3.994,1.106 -0.527,-0.321 0.66,-1.925 0.66,-1.925 0,0 -3.918,1.577 -4.169,1.026 -0.252,-0.552 1.13,-2.48 1.13,-2.48 0,0 -4.873,2.965 -5.242,2.183 -0.37,-0.783 2.153,-3.415 2.153,-3.415 0,0 -7.966,3.757 -8.326,2.302 -0.36,-1.455 5.545,-5.792 5.545,-5.792 0,0 -10.17,4.013 -10.42,2.501 C -11.006,5.592 0.107,-0.677 0.107,-0.677 L 0,0 z"
         style="fill:#000000;fill-opacity:1;fill-rule:nonzero;stroke:none"
         id="path3868" />
    </g>
    <g
       id="g3870"
       transform="matrix(1.1527655,0,0,-1.1527655,286.40434,239.21527)"
       style="fill:#000000">
      <path
         inkscape:connector-curvature="0"
         d="m 0,0 c 0,0.642 -0.081,1.266 -0.218,1.868 -1.941,2.181 -4.783,3.564 -7.96,3.564 -3.359,0 -6.346,-1.545 -8.284,-3.945 C -16.55,1.004 -16.603,0.508 -16.603,0 c 0,-4.585 3.716,-8.302 8.302,-8.302 C -3.716,-8.302 0,-4.585 0,0"
         style="fill:#000000;fill-opacity:1;fill-rule:nonzero;stroke:none"
         id="path3872" />
    </g>
    <g
       id="g3874"
       transform="matrix(1.1527655,0,0,-1.1527655,273.87353,239.26816)">
      <path
         inkscape:connector-curvature="0"
         d="m 0,0 c 0,-1.191 -0.966,-2.156 -2.155,-2.156 -1.191,0 -2.157,0.965 -2.157,2.156 0,1.19 0.966,2.155 2.157,2.155 C -0.966,2.155 0,1.19 0,0"
         style="fill:#ffffff;fill-opacity:1;fill-rule:nonzero;stroke:none"
         id="path3876" />
    </g>
    <g
       id="g3878"
       transform="matrix(1.1527655,0,0,-1.1527655,306.17416,256.64808)"
       style="fill:#000000">
      <path
         inkscape:connector-curvature="0"
         d="M 0,0 C 0.917,0.549 1.999,0.866 3.164,0.866 4.328,0.866 5.41,0.549 6.329,0 7.015,-0.104 7.665,-0.236 8.264,-0.398 7.197,1.226 5.318,2.314 3.164,2.314 1.009,2.314 -0.869,1.226 -1.937,-0.398 -1.339,-0.236 -0.687,-0.104 0,0"
         style="fill:#000000;fill-opacity:1;fill-rule:nonzero;stroke:none"
         id="path3880" />
    </g>
    <g
       id="g3882"
       transform="matrix(1.1527655,0,0,-1.1527655,262.66786,257.93478)"
       style="fill:#000000">
      <path
         inkscape:connector-curvature="0"
         d="m 0,0 c -0.181,0.021 -4.387,1.309 -7.911,5.006 -4.733,4.966 -4.457,8.661 -4.716,9.74 l 1.033,-2.014 c 0.009,-0.048 1.255,-3.869 4.555,-6.745 C -3.537,2.934 0.136,1.44 0.176,1.436 L 0,0 z"
         style="fill:#000000;fill-opacity:1;fill-rule:nonzero;stroke:none"
         id="path3884" />
    </g>
    <g
       id="g3886"
       transform="matrix(1.1527655,0,0,-1.1527655,357.20361,257.93478)"
       style="fill:#000000">
      <path
         inkscape:connector-curvature="0"
         d="m 0,0 c 0.181,0.021 4.388,1.309 7.912,5.006 4.734,4.966 4.456,8.661 4.715,9.74 L 11.594,12.732 C 11.585,12.684 10.341,8.863 7.04,5.987 3.539,2.934 -0.137,1.44 -0.176,1.436 L 0,0 z"
         style="fill:#000000;fill-opacity:1;fill-rule:nonzero;stroke:none"
         id="path3888" />
    </g>
    <g
       id="g3890"
       transform="matrix(1.1527655,0,0,-1.1527655,305.4215,255.73738)"
       style="fill:#000000">
      <path
         inkscape:connector-curvature="0"
         d="m 0,0 c -0.823,2.366 -17.322,2.437 -19.2,2.437 -12.431,0 -18.904,-0.991 -19.248,-3.043 0,-6.48 8.836,-14.398 19.146,-14.398 10.176,0 18.913,7.709 19.143,14.139 C 0.124,-0.504 0.054,-0.152 0,0 m -1.395,-1.083 c 0,-4.739 -7.043,-12.051 -16.399,-12.051 -9.357,0 -16.399,7.312 -16.412,11.939 0.322,0.707 4.982,1.759 16.504,1.759 8.944,0 14.949,-0.773 16.307,-1.386 l 0,-0.261 z"
         style="fill:#000000;fill-opacity:1;fill-rule:nonzero;stroke:none"
         id="path3892" />
    </g>
    <g
       id="g3894"
       transform="matrix(1.1527655,0,0,-1.1527655,314.63245,256.73476)"
       style="fill:#000000">
      <path
         inkscape:connector-curvature="0"
         d="m 0,0 c 0.23,-6.43 8.969,-14.139 19.143,-14.139 10.312,0 19.148,7.918 19.148,14.398 -0.345,2.052 -6.82,3.043 -19.248,3.043 -1.88,0 -18.379,-0.07 -19.201,-2.437 C -0.212,0.712 -0.281,0.361 0,0 m 1.236,0.043 c 1.362,0.613 7.366,1.386 16.308,1.386 11.521,0 16.181,-1.051 16.503,-1.759 -0.013,-4.627 -7.053,-11.938 -16.41,-11.938 -9.358,0 -16.401,7.311 -16.401,12.05 l 0,0.261 z"
         style="fill:#000000;fill-opacity:1;fill-rule:nonzero;stroke:none"
         id="path3896" />
    </g>
    <path
       style="fill:#ffffff;stroke:#ffffff;stroke-width:0.61364919px;stroke-linecap:butt;stroke-linejoin:miter;stroke-opacity:1"
       d="m 246.52634,190.62563 15.49698,-7.12863 0,0"
       id="path5282"
       inkscape:connector-curvature="0" />
    <path
       inkscape:connector-curvature="0"
       id="path3101"
       d="m 243.34436,187.44365 15.49698,-7.12863 0,0"
       style="fill:#ffffff;stroke:#ffffff;stroke-width:0.61364919px;stroke-linecap:butt;stroke-linejoin:miter;stroke-opacity:1" />
  </g>
</svg>
