<?xml version="1.0" encoding="UTF-8" standalone="no"?>
<!DOCTYPE svg PUBLIC "-//W3C//DTD SVG 1.1//EN" "http://www.w3.org/Graphics/SVG/1.1/DTD/svg11.dtd">
<svg width="100%" height="100%" viewBox="0 0 825 825" version="1.1" xmlns="http://www.w3.org/2000/svg" xmlns:xlink="http://www.w3.org/1999/xlink" xml:space="preserve" xmlns:serif="http://www.serif.com/" style="fill-rule:evenodd;clip-rule:evenodd;stroke-linejoin:round;stroke-miterlimit:2;">
    <g id="Layer-1" serif:id="Layer 1" transform="matrix(4.16667,0,0,4.16667,0,0)">
        <g transform="matrix(0,-1,-1,0,97.4797,9.0002)">
            <path d="M-84.408,-84.407C-131.025,-84.407 -168.815,-46.616 -168.815,-0.001C-168.815,46.617 -131.025,84.408 -84.408,84.408C-37.791,84.408 0,46.617 0,-0.001C0,-46.616 -37.791,-84.407 -84.408,-84.407" style="fill:rgb(108,0,61);fill-rule:nonzero;"/>
        </g>
        <g transform="matrix(1,0,0,1,100.609,188.956)">
            <path d="M0,-113.812C-1.071,-113.855 -2.095,-113.849 -3.13,-113.856C-4.166,-113.849 -5.189,-113.855 -6.259,-113.812C-59.589,-111.71 -67.465,-72.688 -67.465,-72.688C-67.465,-72.688 -52,-27.063 -39.097,-16.598C-31.672,-10.573 -12.787,-0.711 -3.13,0.044C6.527,-0.711 25.41,-10.573 32.837,-16.598C45.74,-27.063 61.205,-72.688 61.205,-72.688C61.205,-72.688 53.329,-111.71 0,-113.812" style="fill:white;fill-rule:nonzero;"/>
        </g>
        <g transform="matrix(0,-1,-1,0,68.397,132.049)">
            <path d="M-13.193,-13.894C-13.193,-13.894 -21.669,-7.83 -21.669,-0.351C-21.669,7.13 -13.193,13.193 -13.193,13.193C-13.193,13.193 -5.418,7.13 -5.418,-0.351C-5.418,-7.83 -13.193,-13.894 -13.193,-13.894" style="fill:white;fill-rule:nonzero;"/>
        </g>
        <g transform="matrix(1,0,0,1,9,49.0266)">
            <path d="M0,78.134C31.969,79.975 42.277,52.616 42.277,52.616C42.277,52.616 63.639,68.989 96.334,78.223C138.913,90.247 177.682,60.462 177.682,60.462C177.682,60.462 145.611,47.908 136.137,-2.721C104.793,-12.113 60.432,4.272 34.759,16.576C9.086,28.881 18.653,69.584 0,78.134" style="fill:rgb(108,0,61);fill-rule:nonzero;"/>
        </g>
        <g transform="matrix(0,1,1,0,126.561,132.049)">
            <path d="M13.193,-13.894C13.193,-13.894 21.669,-7.83 21.669,-0.351C21.669,7.129 13.193,13.193 13.193,13.193C13.193,13.193 5.418,7.129 5.418,-0.351C5.418,-7.83 13.193,-13.894 13.193,-13.894" style="fill:white;fill-rule:nonzero;"/>
        </g>
        <g transform="matrix(1,0,0,1,117.908,144.827)">
            <path d="M0,-2.87C0,-3.512 0.081,-4.136 0.22,-4.738C2.16,-6.919 5,-8.302 8.179,-8.302C11.538,-8.302 14.525,-6.757 16.463,-4.357C16.551,-3.874 16.603,-3.378 16.603,-2.87C16.603,1.715 12.887,5.432 8.301,5.432C3.718,5.432 0,1.715 0,-2.87" style="fill:rgb(35,31,32);fill-rule:nonzero;"/>
        </g>
        <g transform="matrix(1,0,0,1,140.048,133.533)">
            <path d="M0,12.352C0,12.352 -4.114,5.954 -12.531,4.35C-20.95,2.748 -27.381,11.708 -27.381,11.708C-27.381,11.708 -22.14,2.552 -16.186,1.01C-14.278,0.516 -11.909,0.751 -11.909,0.751C-11.909,0.751 -8.44,-0.677 -7.915,-0.355C-7.386,-0.034 -8.574,1.57 -8.574,1.57C-8.574,1.57 -4.659,-0.007 -4.406,0.544C-4.155,1.096 -5.536,3.024 -5.536,3.024C-5.536,3.024 -0.664,0.06 -0.293,0.841C0.076,1.624 -2.446,4.256 -2.446,4.256C-2.446,4.256 5.521,0.499 5.879,1.954C6.24,3.409 0.334,7.746 0.334,7.746C0.334,7.746 10.505,3.733 10.757,5.246C11.007,6.76 -0.107,13.029 -0.107,13.029L0,12.352Z" style="fill:rgb(35,31,32);fill-rule:nonzero;"/>
        </g>
        <g transform="matrix(0,-1,-1,0,121.53,139.848)">
            <path d="M-2.153,-2.158C-3.344,-2.158 -4.311,-1.192 -4.311,-0.003C-4.311,1.188 -3.344,2.153 -2.153,2.153C-0.963,2.153 0,1.188 0,-0.003C0,-1.192 -0.963,-2.158 -2.153,-2.158" style="fill:white;fill-rule:nonzero;"/>
        </g>
        <g transform="matrix(1,0,0,1,54.9092,133.533)">
            <path d="M0,12.352C0,12.352 4.115,5.954 12.533,4.35C20.951,2.748 27.382,11.708 27.382,11.708C27.382,11.708 22.139,2.552 16.186,1.01C14.277,0.516 11.909,0.751 11.909,0.751C11.909,0.751 8.442,-0.677 7.915,-0.355C7.388,-0.034 8.575,1.57 8.575,1.57C8.575,1.57 4.657,-0.007 4.406,0.544C4.154,1.096 5.536,3.024 5.536,3.024C5.536,3.024 0.663,0.06 0.294,0.841C-0.076,1.624 2.447,4.256 2.447,4.256C2.447,4.256 -5.519,0.499 -5.879,1.954C-6.239,3.409 -0.334,7.746 -0.334,7.746C-0.334,7.746 -10.504,3.733 -10.754,5.246C-11.006,6.76 0.107,13.029 0.107,13.029L0,12.352Z" style="fill:rgb(35,31,32);fill-rule:nonzero;"/>
        </g>
        <g transform="matrix(1,0,0,1,77.0479,144.827)">
            <path d="M0,-2.87C0,-3.512 -0.081,-4.136 -0.218,-4.738C-2.159,-6.919 -5.001,-8.302 -8.178,-8.302C-11.537,-8.302 -14.524,-6.757 -16.462,-4.357C-16.55,-3.874 -16.603,-3.378 -16.603,-2.87C-16.603,1.715 -12.887,5.432 -8.301,5.432C-3.716,5.432 0,1.715 0,-2.87" style="fill:rgb(35,31,32);fill-rule:nonzero;"/>
        </g>
        <g transform="matrix(0,-1,-1,0,64.0212,139.847)">
            <path d="M-2.156,-2.156C-3.346,-2.156 -4.312,-1.19 -4.312,-0.001C-4.312,1.19 -3.346,2.156 -2.156,2.156C-0.965,2.156 -0.001,1.19 -0.001,-0.001C-0.001,-1.19 -0.965,-2.156 -2.156,-2.156" style="fill:white;fill-rule:nonzero;"/>
        </g>
        <g transform="matrix(1,0,0,1,94.1978,155.163)">
            <path d="M0,1.916C0.917,1.367 1.999,1.05 3.164,1.05C4.328,1.05 5.41,1.367 6.33,1.916C7.015,2.02 7.666,2.152 8.264,2.314C7.197,0.69 5.318,-0.398 3.164,-0.398C1.009,-0.398 -0.869,0.69 -1.937,2.314C-1.339,2.152 -0.687,2.02 0,1.916" style="fill:rgb(35,31,32);fill-rule:nonzero;"/>
        </g>
        <g transform="matrix(1,0,0,1,56.457,143.45)">
            <path d="M0,14.746C-0.181,14.725 -4.387,13.437 -7.911,9.74C-12.644,4.774 -12.368,1.079 -12.627,0L-11.594,2.014C-11.585,2.062 -10.339,5.883 -7.039,8.759C-3.537,11.812 0.136,13.306 0.176,13.31L0,14.746Z" style="fill:rgb(35,31,32);fill-rule:nonzero;"/>
        </g>
        <g transform="matrix(1,0,0,1,138.465,143.45)">
            <path d="M0,14.746C0.181,14.725 4.388,13.437 7.912,9.74C12.646,4.774 12.368,1.079 12.627,0L11.594,2.014C11.585,2.062 10.341,5.883 7.04,8.759C3.539,11.812 -0.137,13.306 -0.176,13.31L0,14.746Z" style="fill:rgb(35,31,32);fill-rule:nonzero;"/>
        </g>
        <g transform="matrix(1,0,0,1,93.5449,168.857)">
            <path d="M0,-12.567C-0.823,-14.933 -17.322,-15.004 -19.2,-15.004C-31.631,-15.004 -38.104,-14.013 -38.448,-11.961C-38.448,-5.481 -29.612,2.437 -19.302,2.437C-9.126,2.437 -0.389,-5.272 -0.159,-11.702C0.125,-12.063 0.054,-12.415 0,-12.567M-1.395,-11.484C-1.395,-6.745 -8.438,0.567 -17.794,0.567C-27.151,0.567 -34.193,-6.745 -34.206,-11.372C-33.884,-12.079 -29.224,-13.131 -17.702,-13.131C-8.758,-13.131 -2.753,-12.358 -1.395,-11.745L-1.395,-11.484Z" style="fill:rgb(35,31,32);fill-rule:nonzero;"/>
        </g>
        <g transform="matrix(1,0,0,1,101.535,167.992)">
            <path d="M0,-10.837C0.23,-4.407 8.969,3.302 19.143,3.302C29.455,3.302 38.291,-4.616 38.291,-11.096C37.946,-13.148 31.471,-14.139 19.043,-14.139C17.163,-14.139 0.664,-14.068 -0.158,-11.702C-0.212,-11.549 -0.281,-11.198 0,-10.837M1.236,-10.88C2.598,-11.493 8.602,-12.266 17.544,-12.266C29.065,-12.266 33.725,-11.214 34.047,-10.507C34.034,-5.88 26.994,1.432 17.637,1.432C8.279,1.432 1.236,-5.88 1.236,-10.619L1.236,-10.88Z" style="fill:rgb(35,31,32);fill-rule:nonzero;"/>
        </g>
    </g>
</svg>
