<?xml version="1.0" encoding="UTF-8" standalone="no"?>
<!DOCTYPE svg PUBLIC "-//W3C//DTD SVG 1.1//EN" "http://www.w3.org/Graphics/SVG/1.1/DTD/svg11.dtd">
<svg width="100%" height="100%" viewBox="0 0 2550 3300" version="1.1" xmlns="http://www.w3.org/2000/svg" xmlns:xlink="http://www.w3.org/1999/xlink" xml:space="preserve" xmlns:serif="http://www.serif.com/" style="fill-rule:evenodd;clip-rule:evenodd;stroke-linejoin:round;stroke-miterlimit:2;">
    <g id="Artwork">
        <g id="Background" transform="matrix(-0.538991,0.93356,-0.93356,-0.538991,3068.11,632.801)">
            <g id="Tan" transform="matrix(1.06907,0,0,1.06907,-15.9095,-89.114)">
                <path d="M891.009,1474.67C823.66,1399.48 782.682,1300.19 782.682,1191.4C782.682,1058.53 843.861,939.775 939.521,861.851C1054.12,1040.19 1037.85,1244.5 891.009,1474.67Z" style="fill:rgb(228,206,159);"/>
            </g>
            <path id="Yellow" d="M988.517,832.36C998.992,849.24 1009.45,868.951 1017.35,887.185C1086.68,1047.15 1049.42,1231.36 984.311,1386.01C974.898,1408.36 964.913,1430.49 954.341,1452.32C948.453,1464.47 935.559,1489.49 936.643,1487.41C1021.66,1583.15 1148.08,1639.63 1276.22,1638.75C1331.86,1059.64 1124.43,894.377 1018.07,810.045C1008.08,816.939 997.878,824.637 988.464,832.306" style="fill:rgb(222,165,55);"/>
            <path id="Orange" d="M1583.26,1518.04C1500.14,1594.76 1389.35,1638.45 1276.22,1638.75C1275.29,1597.45 1274.37,1556.15 1272.71,1514.87C1271.72,1490.44 1270.16,1466.03 1268.28,1441.65C1258.58,1315.51 1238.75,1188.29 1192.93,1069.77C1170.01,1010.46 1140.48,953.469 1102.53,902.318C1087.25,881.737 1070.77,862.164 1052.91,843.774C1043.88,834.466 1018.05,810.062 1018.05,810.062C1018.05,810.062 1040.69,794.707 1045.91,791.965C1370.93,972.545 1512.87,1234.87 1583.26,1518.04Z" style="fill:rgb(210,125,57);"/>
            <path id="Red" d="M1081.78,773.535C1178.44,803.715 1273.79,840.63 1362.16,890.469C1384.22,902.912 1427.98,929.373 1448.15,944.702C1460.74,954.276 1508.78,998.307 1520.37,1008.86C1567.45,1051.72 1611.22,1096.93 1650.66,1147.04C1673.41,1175.94 1697.02,1204.29 1717.39,1234.91C1719.09,1237.46 1724.65,1248.85 1724.65,1248.85C1724.65,1248.85 1716.91,1292.46 1715.92,1296.69C1704.74,1344.66 1685.55,1391.05 1658.44,1432.32C1642.13,1457.17 1627.82,1472.66 1607.76,1494.8C1602.94,1500.12 1583.16,1518.13 1583.16,1518.13C1583.16,1518.13 1553.19,1456.99 1537.26,1426.62C1518.27,1390.42 1498.88,1354.44 1478.74,1318.87C1412.86,1202.56 1341.25,1090.38 1257.7,985.935C1215.85,933.63 1168.1,884.204 1115.84,842.206C1106.3,834.547 1096.62,827.057 1086.66,819.975C1073.11,810.345 1045.78,792.036 1045.78,792.036C1045.78,792.036 1058.85,784.793 1063.07,782.728C1069.32,779.664 1075.47,776.482 1081.78,773.535Z" style="fill:rgb(207,66,63);"/>
            <path id="Blue-Green" serif:id="Blue Green" d="M1081.95,773.771L1081.67,773.564C1126.43,752.451 1174.68,738.744 1223.88,733.267C1286.33,726.315 1349.98,732.204 1409.99,750.849C1566.02,799.327 1687.24,932.972 1719.93,1093.1C1730.38,1144.26 1731.98,1197.18 1724.65,1248.85C1724.65,1248.85 1579.7,1060.51 1490.97,988.44C1372.79,892.454 1235.77,821.797 1081.95,773.771Z" style="fill:rgb(50,146,150);"/>
        </g>
        <g id="Gray-underlighting" serif:id="Gray underlighting" transform="matrix(2.17652,0,0,2.17652,888.154,1021.24)">
            <path id="path2841-2" d="M145.813,0.5C123.746,1.652 126.781,69.375 126.781,69.375C126.781,69.375 125.844,76.852 122.688,81.156C119.531,85.461 114.242,88.538 112.906,87.188L121.125,51L109,51C109,51.001 102.54,87.224 95.469,88.563C88.398,89.901 90.405,82.509 90.405,74.932C90.405,63.775 91.925,51.541 83.844,50.531C75.763,49.521 67.156,63.313 67.156,63.313C67.156,63.313 68.175,55.228 60.094,51.188C52.013,47.147 31.813,57.25 31.813,57.25C33.694,48.718 30.278,37.958 20.688,38.063C12.219,38.574 6.251,44.469 0.5,49.156L8.594,57.25C8.594,57.25 16.647,48.168 20.688,53.219C24.728,58.27 5.134,152.045 5.134,152.045L17.259,152.045L28.781,103.719C28.781,103.719 55.043,105.748 60.094,99.688C65.145,93.627 69.188,77.469 69.188,77.469C69.188,77.469 80.307,65.325 79.296,69.366C78.286,73.406 77.262,100.677 82.313,101.688C87.363,102.698 97.469,101.688 97.469,101.688L85.219,140.969L71.219,142.094L69.188,152.219L92.438,152.219L108.75,101.438C108.75,101.438 116.072,100.388 120.219,98.125C124.366,95.862 127.605,91.856 130.594,88.875C131.252,93.936 131.46,97.915 137.656,101.125C145.687,105.285 156.835,102.286 161.625,98.625C173.242,106.201 182.844,97.125 182.844,97.125C182.844,97.125 193.939,107.227 200,97.125C216.668,108.237 225.75,96.656 225.75,96.656C225.75,96.656 226.532,102.114 240.563,103.063C254.593,104.011 261.281,90.406 261.281,90.406C264.026,93.89 265.421,101.304 272.188,102.031C278.954,102.758 285.715,98.425 290.844,93.063C294.663,100.26 298.557,100.822 303.438,102.563C308.318,104.303 317.738,99.113 321.719,96.375C326.795,105.513 341.737,104.835 346.125,98.031C346.186,98.509 347.309,99.53 353.219,101.5C355.561,99.79 356.227,96.97 359.031,93.156C356.506,92.146 351.406,89.625 351.406,89.625C349.903,81.212 345.38,73.406 340.563,65.656L345.625,54.563L335.531,51.531C329.307,65.036 324.064,77.009 319.875,84.969C315.686,92.928 300.187,93.238 297.156,86.344C317.451,71.154 319.699,47.772 302.188,50.006C285.981,52.073 287.446,80.543 287.446,80.543C287.446,80.543 281.487,86.334 273.406,87.344C265.325,88.354 275.969,51.344 275.969,51.344L264.875,51.344C264.875,51.344 258.197,77.705 250.188,86.344C242.969,94.13 239.851,89.485 237.875,88.563C235.828,87.607 260.629,0.551 260.629,0.551L246.463,0.678L231.656,52.063C223.575,51.899 214.487,50.737 206.406,57.938C195.546,68.14 199.743,90.999 187.188,86.886C183.147,87.896 194.031,56.125 194.031,56.125C193.292,50.953 177.302,48.598 169.344,53.5C153.557,63.224 154.998,82.523 152.031,89.563C145.035,92.797 143.097,90.659 140.333,83.563C151.959,69.964 170.109,1.51 146.875,0.5C146.512,0.484 146.163,0.482 145.813,0.5ZM146.672,16.833C146.78,16.818 146.877,16.824 146.985,16.833C151.813,17.225 137.375,63.813 137.375,63.813C135.877,63.317 139.911,17.783 146.672,16.833ZM299.522,61.768C301.828,59.829 303.505,60.235 303.866,61.567C304.227,62.899 295.165,74.821 295.165,74.821C295.214,70.338 297.217,63.707 299.522,61.768ZM224.265,64.448C227.158,64.366 228.301,63.95 229.719,65.031L225.125,85.375C224.115,88.447 210.421,90.931 208.906,83.906C207.486,77.319 211.357,72.169 214.171,68.635C216.444,65.782 220.546,64.552 224.265,64.448ZM179.235,65.015C180.021,65 180.843,65.13 181.672,65.421L176.516,83.943C173.991,87.478 167.238,89 166.594,83.844C165.755,77.131 171.631,65.166 179.235,65.015ZM52.875,65.031C54.211,65.06 55.406,65.384 56.344,66.188C61.344,70.473 56.93,85.352 51.844,88.75C45.729,92.835 33.156,89.969 33.156,89.969L38.156,70.688C38.737,70.688 47.085,64.906 52.875,65.031ZM336.375,74.625C336.375,74.625 342.465,87.615 341.375,89.625C338.649,94.654 329.056,89.545 329.594,87.844L336.375,74.625Z" style="fill:rgb(217,217,217);fill-rule:nonzero;"/>
            <path id="path2915-9" d="M274.984,27.19C285.895,26.819 285.254,43.848 274.265,42.698C266.398,41.875 264.074,27.561 274.984,27.19Z" style="fill:rgb(217,217,217);fill-rule:nonzero;"/>
        </g>
        <g id="white" transform="matrix(2.17652,0,0,2.17652,879.321,1015.56)">
            <path id="path2841-2-0" d="M145.813,0.5C123.746,1.652 126.781,69.375 126.781,69.375C126.781,69.375 125.844,76.852 122.688,81.156C119.531,85.461 114.242,88.538 112.906,87.188L121.125,51L109,51C109,51.001 102.54,87.224 95.469,88.563C88.398,89.901 90.405,82.509 90.405,74.932C90.405,63.775 91.925,51.541 83.844,50.531C75.763,49.521 67.156,63.313 67.156,63.313C67.156,63.313 68.175,55.228 60.094,51.188C52.013,47.147 31.813,57.25 31.813,57.25C33.694,48.718 30.278,37.958 20.688,38.063C12.219,38.574 6.251,44.469 0.5,49.156L8.594,57.25C8.594,57.25 16.647,48.168 20.688,53.219C24.728,58.27 5.134,152.045 5.134,152.045L17.259,152.045L28.781,103.719C28.781,103.719 55.043,105.748 60.094,99.688C65.145,93.627 69.188,77.469 69.188,77.469C69.188,77.469 80.307,65.325 79.296,69.366C78.286,73.406 77.262,100.677 82.313,101.688C87.363,102.698 97.469,101.688 97.469,101.688L85.219,140.969L71.219,142.094L69.188,152.219L92.438,152.219L108.75,101.438C108.75,101.438 116.072,100.388 120.219,98.125C124.366,95.862 127.605,91.856 130.594,88.875C131.252,93.936 131.46,97.915 137.656,101.125C145.687,105.285 156.835,102.286 161.625,98.625C173.242,106.201 182.844,97.125 182.844,97.125C182.844,97.125 193.939,107.227 200,97.125C216.668,108.237 225.75,96.656 225.75,96.656C225.75,96.656 226.532,102.114 240.563,103.063C254.593,104.011 261.281,90.406 261.281,90.406C264.026,93.89 265.421,101.304 272.188,102.031C278.954,102.758 285.715,98.425 290.844,93.063C294.663,100.26 298.557,100.822 303.438,102.563C308.318,104.303 317.738,99.113 321.719,96.375C326.795,105.513 341.737,104.835 346.125,98.031C346.186,98.509 347.309,99.53 353.219,101.5C355.561,99.79 356.227,96.97 359.031,93.156C356.506,92.146 351.406,89.625 351.406,89.625C349.903,81.212 345.38,73.406 340.563,65.656L345.625,54.563L335.531,51.531C329.307,65.036 324.064,77.009 319.875,84.969C315.686,92.928 300.187,93.238 297.156,86.344C317.451,71.154 319.699,47.772 302.188,50.006C285.981,52.073 287.446,80.543 287.446,80.543C287.446,80.543 281.487,86.334 273.406,87.344C265.325,88.354 275.969,51.344 275.969,51.344L264.875,51.344C264.875,51.344 258.197,77.705 250.188,86.344C242.969,94.13 239.851,89.485 237.875,88.563C235.828,87.607 260.629,0.551 260.629,0.551L246.463,0.678L231.656,52.063C223.575,51.899 214.487,50.737 206.406,57.938C195.546,68.14 199.743,90.999 187.188,86.886C183.147,87.896 194.031,56.125 194.031,56.125C193.292,50.953 177.302,48.598 169.344,53.5C153.557,63.224 154.998,82.523 152.031,89.563C145.035,92.797 143.097,90.659 140.333,83.563C151.959,69.964 170.109,1.51 146.875,0.5C146.512,0.484 146.163,0.482 145.813,0.5ZM146.672,16.833C146.78,16.818 146.877,16.824 146.985,16.833C151.813,17.225 137.375,63.813 137.375,63.813C135.877,63.317 139.911,17.783 146.672,16.833ZM299.522,61.768C301.828,59.829 303.505,60.235 303.866,61.567C304.227,62.899 295.165,74.821 295.165,74.821C295.214,70.338 297.217,63.707 299.522,61.768ZM224.265,64.448C227.158,64.366 228.301,63.95 229.719,65.031L225.125,85.375C224.115,88.447 210.421,90.931 208.906,83.906C207.486,77.319 211.357,72.169 214.171,68.635C216.444,65.782 220.546,64.552 224.265,64.448ZM179.235,65.015C180.021,65 180.843,65.13 181.672,65.421L176.516,83.943C173.991,87.478 167.238,89 166.594,83.844C165.755,77.131 171.631,65.166 179.235,65.015ZM52.875,65.031C54.211,65.06 55.406,65.384 56.344,66.188C61.344,70.473 56.93,85.352 51.844,88.75C45.729,92.835 33.156,89.969 33.156,89.969L38.156,70.688C38.737,70.688 47.085,64.906 52.875,65.031ZM336.375,74.625C336.375,74.625 342.465,87.615 341.375,89.625C338.649,94.654 329.056,89.545 329.594,87.844L336.375,74.625Z" style="fill:white;fill-rule:nonzero;"/>
            <path id="path2915-9-9" d="M274.984,27.19C285.895,26.819 285.254,43.848 274.265,42.698C266.398,41.875 264.074,27.561 274.984,27.19Z" style="fill:white;fill-rule:nonzero;"/>
        </g>
    </g>
</svg>
