<?xml version="1.0" encoding="UTF-8" standalone="no"?>
<!DOCTYPE svg PUBLIC "-//W3C//DTD SVG 1.1//EN" "http://www.w3.org/Graphics/SVG/1.1/DTD/svg11.dtd">
<svg width="100%" height="100%" viewBox="0 0 363 155" version="1.1" xmlns="http://www.w3.org/2000/svg" xmlns:xlink="http://www.w3.org/1999/xlink" xml:space="preserve" xmlns:serif="http://www.serif.com/" style="fill-rule:evenodd;clip-rule:evenodd;stroke-linejoin:round;stroke-miterlimit:2;">
    <path id="white" d="M149.376,2.62C127.31,3.773 130.345,71.495 130.345,71.495C130.345,71.495 129.408,78.972 126.251,83.277C123.094,87.581 117.806,90.659 116.47,89.308L124.689,53.12L112.564,53.12C112.564,53.121 106.103,89.344 99.032,90.683C91.961,92.022 93.969,84.629 93.969,77.053C93.969,65.895 95.489,53.662 87.407,52.652C79.326,51.641 70.72,65.433 70.72,65.433C70.72,65.433 71.739,57.349 63.657,53.308C55.576,49.267 35.376,59.37 35.376,59.37C37.258,50.839 33.841,40.078 24.251,40.183C15.782,40.694 9.815,46.589 4.064,51.277L12.157,59.37C12.157,59.37 20.211,50.288 24.251,55.339C28.292,60.39 8.698,154.165 8.698,154.165L20.823,154.165L32.345,105.839C32.345,105.839 58.607,107.869 63.657,101.808C68.708,95.747 72.751,79.589 72.751,79.589C72.751,79.589 83.87,67.445 82.86,71.486C81.85,75.527 80.825,102.798 85.876,103.808C90.927,104.818 101.032,103.808 101.032,103.808L88.782,143.089L74.782,144.214L72.751,154.339L96.001,154.339L112.314,103.558C112.314,103.558 119.636,102.509 123.782,100.245C127.929,97.982 131.168,93.976 134.157,90.995C134.816,96.057 135.024,100.036 141.22,103.245C149.25,107.405 160.399,104.407 165.189,100.745C176.805,108.322 186.407,99.245 186.407,99.245C186.407,99.245 197.503,109.347 203.564,99.245C220.231,110.357 229.314,98.777 229.314,98.777C229.314,98.777 230.096,104.234 244.126,105.183C258.156,106.132 264.845,92.527 264.845,92.527C267.589,96.011 268.985,103.425 275.751,104.152C282.517,104.879 289.278,100.546 294.407,95.183C298.227,102.381 302.121,102.942 307.001,104.683C311.882,106.423 321.301,101.234 325.282,98.495C330.359,107.633 345.301,106.956 349.689,100.152C349.75,100.63 350.873,101.651 356.782,103.62C359.124,101.911 359.791,99.091 362.595,95.277C360.069,94.266 354.97,91.745 354.97,91.745C353.467,83.332 348.943,75.527 344.126,67.777L349.189,56.683L339.095,53.652C332.871,67.156 327.628,79.13 323.439,87.089C319.249,95.049 303.75,95.358 300.72,88.464C321.014,73.275 323.263,49.893 305.751,52.126C289.545,54.193 291.009,82.664 291.009,82.664C291.009,82.664 285.051,88.454 276.97,89.464C268.889,90.474 279.532,53.464 279.532,53.464L268.439,53.464C268.439,53.464 261.76,79.825 253.751,88.464C246.532,96.25 243.415,91.605 241.439,90.683C239.392,89.728 264.193,2.672 264.193,2.672L250.027,2.799L235.22,54.183C227.139,54.019 218.051,52.857 209.97,60.058C199.11,70.26 203.307,93.12 190.751,89.006C186.711,90.016 197.595,58.245 197.595,58.245C196.856,53.073 180.866,50.718 172.907,55.62C157.121,65.345 158.562,84.644 155.595,91.683C148.599,94.917 146.661,92.779 143.896,85.683C155.522,72.085 173.672,3.631 150.439,2.62C150.076,2.605 149.726,2.602 149.376,2.62ZM150.236,18.953C150.343,18.938 150.44,18.944 150.548,18.953C155.377,19.345 140.939,65.933 140.939,65.933C139.441,65.438 143.474,19.904 150.236,18.953ZM303.086,63.888C305.391,61.949 307.069,62.356 307.43,63.687C307.79,65.019 298.729,76.942 298.729,76.942C298.778,72.458 300.781,65.827 303.086,63.888ZM227.829,66.568C230.721,66.487 231.865,66.071 233.282,67.152L228.689,87.495C227.678,90.567 213.985,93.052 212.47,86.027C211.049,79.44 214.92,74.289 217.735,70.756C220.008,67.902 224.11,66.673 227.829,66.568ZM182.798,67.136C183.585,67.12 184.407,67.25 185.236,67.542L180.08,86.063C177.554,89.599 170.802,91.121 170.157,85.964C169.319,79.252 175.195,67.287 182.798,67.136ZM56.439,67.152C57.775,67.18 58.97,67.504 59.907,68.308C64.907,72.594 60.494,87.472 55.407,90.87C49.292,94.956 36.72,92.089 36.72,92.089L41.72,72.808C42.3,72.808 50.648,67.027 56.439,67.152ZM339.939,76.745C339.939,76.745 346.028,89.735 344.939,91.745C342.213,96.774 332.62,91.666 333.157,89.964L339.939,76.745ZM278.548,29.31C289.458,28.939 288.817,45.969 277.829,44.818C269.962,43.995 267.638,29.681 278.548,29.31Z" style="fill:white;fill-rule:nonzero;"/>
    <path id="blue-38-85-134" d="M102.666,118.35L91.086,120.08L84.724,140.482L70.724,141.607L68.693,151.732L91.943,151.732L102.666,118.35ZM21.8,130.435L8.514,132.421C6.28,143.704 4.639,151.557 4.639,151.557L16.764,151.557L21.8,130.435ZM348.761,81.571C349.709,84.046 350.452,86.563 350.911,89.138C350.911,89.138 356.011,91.659 358.536,92.669C355.732,96.483 355.066,99.303 352.724,101.013C346.814,99.043 345.692,98.022 345.63,97.544C341.243,104.348 326.3,105.025 321.224,95.888C317.243,98.626 307.823,103.816 302.943,102.075C298.062,100.335 294.169,99.773 290.349,92.575C285.22,97.938 278.459,102.271 271.693,101.544C267.19,101.06 265.065,97.615 263.339,94.337L299.469,88.937C304.527,92.062 314.018,91.186 318.269,86.128L330.681,84.273L329.099,87.357C328.561,89.058 338.154,94.167 340.88,89.138C341.318,88.329 340.595,85.745 339.574,82.944L348.761,81.571ZM256.967,95.289L228.23,99.584C230.343,100.888 233.943,102.161 240.068,102.575C248.02,103.113 253.614,98.975 256.967,95.289Z" style="fill:rgb(228,206,159);"/>
    <path id="yellow-254-204-47" d="M20.701,58.046L31.384,56.449C33.115,47.97 29.666,37.472 20.193,37.575C11.724,38.087 5.756,43.982 0.005,48.669L8.099,56.763C8.099,56.763 16.152,47.681 20.193,52.732C20.676,53.336 20.821,55.212 20.701,58.046ZM32.232,56.322L61.633,51.928C61.029,51.49 60.354,51.078 59.599,50.7C52.546,47.174 36.26,54.421 32.232,56.322ZM145.318,0.013C145.668,-0.005 146.017,-0.003 146.38,0.013C158.201,0.527 159.309,18.5 156.014,37.823L143.572,39.682C146.542,28.085 148.883,16.54 146.49,16.346C146.382,16.337 146.285,16.331 146.177,16.346C142.753,16.827 140.028,28.746 138.367,40.46L126.826,42.185C128.288,23.104 132.698,0.672 145.318,0.013ZM238.684,25.468L253.623,23.235C257.298,10.021 260.134,0.064 260.134,0.064L245.968,0.191L238.684,25.468Z" style="fill:rgb(50,146,150);"/>
    <path id="green-169-206-39" d="M53.087,49.81C55.6,49.62 57.875,49.838 59.599,50.7C67.68,54.741 66.661,62.825 66.661,62.825C66.661,62.825 75.268,49.034 83.349,50.044C90.434,50.93 90.139,60.442 89.959,70.293L78.374,72.025C78.503,70.576 78.653,69.474 78.802,68.878C79.402,66.475 75.712,69.798 72.624,72.884L57.811,75.098C58.39,71.186 57.954,67.505 55.849,65.7C54.911,64.897 53.716,64.573 52.38,64.544C46.59,64.419 38.242,70.2 37.661,70.2L35.528,78.428L17.882,81.065C19.8,68.942 21.032,58.875 20.682,54.653L31.797,52.992C31.749,54.268 31.588,55.538 31.318,56.763C31.318,56.763 40.372,52.234 48.783,50.454L53.087,49.81ZM117.057,66.243L120.63,50.513L108.505,50.513C108.505,50.513 106.969,59.125 104.574,68.109L117.057,66.243ZM138.891,36.987C136.93,49.203 136.103,62.459 136.829,63.288L126.179,64.88C126.09,59.506 126.112,49.403 127.12,38.746L138.891,36.987ZM156.561,34.346C155.265,43.379 152.899,52.931 150.131,61.3L136.894,63.279C137.173,62.376 141.427,48.563 144.455,36.155L156.561,34.346ZM161.435,59.611L193.298,54.849C191.144,50.239 176.39,48.368 168.849,53.013C165.78,54.903 163.362,57.155 161.435,59.611ZM8.344,56.497L7.9,56.564L8.099,56.763C8.099,56.763 8.185,56.666 8.344,56.497ZM254.61,19.692L239.707,21.92L231.88,49.083L247.153,46.8C249.707,37.351 252.368,27.729 254.61,19.692ZM274.489,26.703C279.945,26.517 282.512,30.682 282.342,34.749C282.172,38.816 279.265,42.786 273.77,42.211C265.903,41.387 263.579,27.074 274.489,26.703Z" style="fill:rgb(207,66,63);"/>
    <path id="green-26-199-105" d="M73.482,72.037C71.041,74.416 68.693,76.982 68.693,76.982C68.693,76.982 64.65,93.139 59.599,99.2C54.548,105.261 28.286,103.232 28.286,103.232L27.174,107.895L12.823,110.04C14.692,100.019 16.551,89.55 17.998,80.329L35.722,77.68L32.661,89.482C32.661,89.482 45.234,92.348 51.349,88.263C54.428,86.206 57.261,79.941 57.908,74.365L73.482,72.037ZM150.379,60.545C147.089,70.663 143.192,79.152 139.838,83.075C141.418,87.131 142.728,89.567 144.866,90.306L130.694,92.424C130.435,91.16 130.285,89.817 130.099,88.388C128.625,89.858 127.09,91.577 125.416,93.213L80.345,99.949C77.454,95.153 77.735,78.164 78.444,71.296L89.972,69.573C89.942,71.194 89.911,72.831 89.911,74.445C89.911,82.021 87.903,89.414 94.974,88.075C98.693,87.371 102.242,77.019 104.772,67.361L117.226,65.499L112.411,86.7C113.747,88.051 119.036,84.974 122.193,80.669C125.349,76.365 126.286,68.888 126.286,68.888C126.286,68.888 126.207,67.126 126.168,64.163L136.647,62.597C136.698,63.038 136.776,63.291 136.88,63.325C136.88,63.325 136.967,63.044 137.126,62.526L150.379,60.545ZM192.892,54.191C193.241,54.642 193.463,55.126 193.536,55.638C193.536,55.638 186.182,77.105 185.808,84.187L172.328,86.202C173.779,85.653 175.151,84.674 176.021,83.455L181.177,64.934C180.348,64.642 179.526,64.512 178.74,64.528C171.136,64.679 165.26,76.644 166.099,83.357C166.365,85.484 167.67,86.475 169.29,86.656L150.742,89.428C151,89.319 151.264,89.201 151.536,89.075C153.991,83.251 153.428,69.034 162.102,58.793L192.892,54.191ZM247.355,46.052C244.333,57.217 241.437,68.213 239.528,76.159L226.15,78.158L229.224,64.544C227.807,63.463 226.663,63.879 223.77,63.96C220.051,64.065 215.949,65.295 213.677,68.148C211.238,71.209 208.007,75.484 208.11,80.854L194.926,82.825C198.133,76.464 198.734,64.193 205.911,57.45C213.993,50.25 223.08,51.411 231.161,51.575L232.096,48.332L247.355,46.052ZM256.791,73.579L270.776,71.489C272.355,61.701 275.474,50.857 275.474,50.857L264.38,50.857C264.38,50.857 261.289,63.057 256.791,73.579ZM287.606,68.974C288.86,60.733 292.324,50.714 301.693,49.519C311.984,48.206 315.451,55.741 312.44,65.262L299.904,67.136C301.839,64.343 303.531,61.67 303.371,61.08C303.011,59.748 301.333,59.342 299.027,61.281C297.735,62.368 296.538,64.929 295.727,67.76L287.606,68.974ZM329.719,62.68L342.044,60.838L345.13,54.075L335.036,51.044C333.175,55.082 331.402,58.983 329.719,62.68ZM278.457,41.403C277.196,42.079 275.632,42.406 273.77,42.211C273.643,42.197 273.517,42.181 273.393,42.16L278.457,41.403Z" style="fill:rgb(210,125,57);"/>
    <path id="blue-17-136-177" d="M13.106,108.524C11.268,118.43 9.401,127.985 7.889,135.565L21.046,133.598L27.539,106.367L13.106,108.524ZM127.121,91.484L79.709,98.57C80.25,100.063 80.943,101.025 81.818,101.2C86.868,102.21 96.974,101.2 96.974,101.2L90.088,123.28L101.637,121.554L108.255,100.95C108.255,100.95 115.577,99.901 119.724,97.638C122.54,96.101 124.937,93.761 127.121,91.484ZM312.875,63.723C311.133,70.742 305.678,79.108 296.661,85.857C298.216,89.394 303.054,91.035 307.961,90.719L290.742,93.292C290.611,93.061 290.48,92.822 290.349,92.575C290.055,92.882 289.757,93.185 289.453,93.485L264.981,97.142C263.303,94.678 262.232,91.754 260.786,89.919C260.786,89.919 258.188,95.205 252.831,98.958L234.061,101.763C225.797,99.948 225.255,96.169 225.255,96.169C225.255,96.169 216.173,107.749 199.505,96.638C193.444,106.739 182.349,96.638 182.349,96.638C182.349,96.638 172.747,105.714 161.13,98.138C156.34,101.799 145.192,104.798 137.161,100.638C132.068,97.999 131.021,94.84 130.444,90.987L143.055,89.103C144.893,91.022 147.277,91.044 151.536,89.075C151.704,88.677 151.858,88.239 152.002,87.766L166.987,85.526C168.841,87.66 173.001,86.621 175.322,84.28L185.958,82.691C185.624,85.134 185.765,86.631 186.693,86.399C191.593,88.004 193.942,85.501 195.629,81.245L208.166,79.372C208.045,80.653 208.106,82.003 208.411,83.419C209.927,90.444 223.62,87.959 224.63,84.888L226.494,76.633L239.899,74.629C237.969,82.536 236.883,87.843 237.38,88.075C239.357,88.998 242.474,93.643 249.693,85.857C252.522,82.804 255.186,77.54 257.448,72.007L271.03,69.977C269.48,78.841 268.98,87.348 272.911,86.857C280.993,85.846 286.951,80.056 286.951,80.056C286.951,80.056 286.645,74.113 287.859,67.462L296.219,66.212C295.301,68.822 294.697,71.895 294.67,74.334C294.67,74.334 298.44,69.374 301.02,65.495L312.875,63.723ZM342.766,59.256L340.068,65.169C343.982,71.468 347.704,77.803 349.767,84.471L340.532,85.851C339.257,81.341 335.88,74.138 335.88,74.138L329.099,87.357C329.079,87.421 329.073,87.489 329.081,87.562L311.04,90.258C314.582,89.415 317.793,87.497 319.38,84.482C322.494,78.565 326.19,70.431 330.439,61.098L342.766,59.256Z" style="fill:rgb(222,165,55);"/>
</svg>
